<svg width="24" height="23" viewBox="0 0 24 23" fill="none" xmlns="http://www.w3.org/2000/svg">
<path d="M18.0895 6.80525C18.0895 3.36496 15.3022 0.577576 11.8619 0.577576C8.42157 0.577576 5.63418 3.36496 5.63418 6.80525C5.63418 8.88449 6.65371 10.7277 8.22068 11.8577C8.21063 11.8627 8.2031 11.8652 8.19808 11.8678C7.07559 12.3424 6.06861 13.0229 5.20226 13.8917C4.34092 14.7515 3.65517 15.7708 3.18329 16.8926C2.71901 17.9911 2.46844 19.1681 2.44501 20.3605C2.44434 20.3873 2.44904 20.414 2.45884 20.4389C2.46863 20.4639 2.48332 20.4866 2.50204 20.5058C2.52077 20.525 2.54314 20.5402 2.56785 20.5507C2.59255 20.5611 2.61909 20.5664 2.6459 20.5664H4.15009C4.25807 20.5664 4.34847 20.4785 4.35098 20.3705C4.4012 18.4319 5.17715 16.6164 6.55076 15.2402C7.96956 13.8164 9.85293 13.0329 11.8619 13.0329C15.3022 13.0329 18.0895 10.2455 18.0895 6.80525ZM11.8619 11.1245C9.47626 11.1245 7.54267 9.19086 7.54267 6.80525C7.54267 4.41965 9.47626 2.48606 11.8619 2.48606C14.2475 2.48606 16.1811 4.41965 16.1811 6.80525C16.1811 9.19086 14.2475 11.1245 11.8619 11.1245ZM14.4986 16.6741H21.128C21.2385 16.6741 21.3289 16.5837 21.3289 16.4732V15.067C21.3289 14.9565 21.2385 14.8661 21.128 14.8661H16.6958L17.8811 13.3569C17.9084 13.3216 17.9234 13.2784 17.9238 13.2338C17.9238 13.1233 17.8334 13.0329 17.7229 13.0329H15.8998C15.7768 13.0329 15.6612 13.0907 15.5834 13.1861L13.8633 15.3733C13.7528 15.514 13.6925 15.6897 13.6925 15.8705C13.695 16.315 14.0541 16.6741 14.4986 16.6741ZM20.5254 18.2813H13.8959C13.7854 18.2813 13.695 18.3717 13.695 18.4822V19.8884C13.695 19.9989 13.7854 20.0893 13.8959 20.0893H18.3281L17.1428 21.5985C17.1155 21.6337 17.1005 21.677 17.1001 21.7215C17.1001 21.832 17.1905 21.9224 17.301 21.9224H19.1241C19.2472 21.9224 19.3627 21.8647 19.4405 21.7693L21.1607 19.582C21.2712 19.4414 21.3314 19.2656 21.3314 19.0848C21.3289 18.6404 20.9698 18.2813 20.5254 18.2813Z" fill="#FF6B72"/>
</svg>
